<svg version="1.1" xmlns="http://www.w3.org/2000/svg" xmlns:xlink="http://www.w3.org/1999/xlink" width="22" height="22"><defs/><g><path fill="rgb(189,189,189)" stroke="none" paint-order="stroke fill markers" fill-rule="evenodd" d=" M 11.499792754650116 20.999980866909027 C 6.253162324428558 20.999980866909027 1.999840259552002 16.746745347976685 1.999840259552002 11.499783873558044 C 1.999840259552002 6.253264546394348 6.253162324428558 1.9998079538345337 11.499792754650116 1.9998079538345337 C 16.746595919132233 1.9998079538345337 20.99974524974823 6.253264546394348 20.99974524974823 11.499783873558044 C 20.99974524974823 16.746745347976685 16.746595919132233 20.999980866909027 11.499792754650116 20.999980866909027 Z M 16.204210340976715 11.088808000087738 C 16.204210340976715 10.685127556324005 15.876965284347534 10.357938587665558 15.47328531742096 10.357938587665558 C 15.47328531742096 10.357938587665558 12.550276160240173 10.357938587665558 12.550276160240173 10.357938587665558 C 12.550276160240173 10.357938587665558 12.550276160240173 7.434903085231781 12.550276160240173 7.434903085231781 C 12.550276160240173 7.03144371509552 12.223117470741272 6.704033672809601 11.819523870944977 6.704033672809601 C 11.819523870944977 6.704033672809601 11.0886852145195 6.704033672809601 11.0886852145195 6.704033672809601 C 10.685264348983765 6.704033672809601 10.358105659484863 7.03144371509552 10.358105659484863 7.434903085231781 C 10.358105659484863 7.434903085231781 10.358105659484863 10.357938587665558 10.358105659484863 10.357938587665558 C 10.358105659484863 10.357938587665558 7.435010135173798 10.357938587665558 7.435010135173798 10.357938587665558 C 7.031243801116943 10.357938587665558 6.7041714787483215 10.685127556324005 6.7041714787483215 11.088808000087738 C 6.7041714787483215 11.088808000087738 6.7041714787483215 11.819456338882446 6.7041714787483215 11.819456338882446 C 6.7041714787483215 12.22313678264618 7.031243801116943 12.550325751304626 7.435010135173798 12.550325751304626 C 7.435010135173798 12.550325751304626 10.358105659484863 12.550325751304626 10.358105659484863 12.550325751304626 C 10.358105659484863 12.550325751304626 10.358105659484863 15.473361253738403 10.358105659484863 15.473361253738403 C 10.358105659484863 15.877041697502136 10.685264348983765 16.204230666160583 11.0886852145195 16.204230666160583 C 11.0886852145195 16.204230666160583 11.819523870944977 16.204230666160583 11.819523870944977 16.204230666160583 C 12.223117470741272 16.204230666160583 12.550276160240173 15.877041697502136 12.550276160240173 15.473361253738403 C 12.550276160240173 15.473361253738403 12.550276160240173 12.550325751304626 12.550276160240173 12.550325751304626 C 12.550276160240173 12.550325751304626 15.47328531742096 12.550325751304626 15.47328531742096 12.550325751304626 C 15.876965284347534 12.550325751304626 16.204210340976715 12.22313678264618 16.204210340976715 11.819456338882446 C 16.204210340976715 11.819456338882446 16.204210340976715 11.088808000087738 16.204210340976715 11.088808000087738 Z"/></g></svg>