<svg version="1.1" xmlns="http://www.w3.org/2000/svg" xmlns:xlink="http://www.w3.org/1999/xlink" width="17" height="17"><defs/><g><path fill="rgb(255,255,255)" stroke="none" paint-order="stroke fill markers" fill-rule="evenodd" d=" M 1.2638514041900635 7.325697243213654 C 1.2638514041900635 7.325697243213654 1.2638514041900635 9.053166568279266 1.2638514041900635 9.053166568279266 C 1.2638514041900635 9.053166568279266 7.5630380511283875 9.053166568279266 7.5630380511283875 9.053166568279266 C 7.5630380511283875 9.053166568279266 7.5630380511283875 15.424729585647583 7.5630380511283875 15.424729585647583 C 7.5630380511283875 15.424729585647583 9.254883766174316 15.424729585647583 9.254883766174316 15.424729585647583 C 9.254883766174316 15.424729585647583 9.254883766174316 9.053166568279266 9.254883766174316 9.053166568279266 C 9.254883766174316 9.053166568279266 15.55407041311264 9.053166568279266 15.55407041311264 9.053166568279266 C 15.55407041311264 9.053166568279266 15.55407041311264 7.325697243213654 15.55407041311264 7.325697243213654 C 15.55407041311264 7.325697243213654 9.254883766174316 7.325697243213654 9.254883766174316 7.325697243213654 C 9.254883766174316 7.325697243213654 9.254883766174316 1.1345303058624268 9.254883766174316 1.1345303058624268 C 9.254883766174316 1.1345303058624268 7.5630380511283875 1.1345303058624268 7.5630380511283875 1.1345303058624268 C 7.5630380511283875 1.1345303058624268 7.5630380511283875 7.325697243213654 7.5630380511283875 7.325697243213654 C 7.5630380511283875 7.325697243213654 1.2638514041900635 7.325697243213654 1.2638514041900635 7.325697243213654 Z"/></g></svg>