<svg version="1.1" xmlns="http://www.w3.org/2000/svg" xmlns:xlink="http://www.w3.org/1999/xlink" width="17" height="16"><defs/><g><path fill="rgb(175,175,175)" stroke="none" paint-order="stroke fill markers" fill-rule="evenodd" d=" M 8.50001049041748 1.0003276467323303 C 8.50001049041748 1.0003276467323303 10.971751391887665 5.3996928334236145 10.971751391887665 5.3996928334236145 C 10.971751391887665 5.3996928334236145 15.999009311199188 6.347656548023224 15.999009311199188 6.347656548023224 C 15.999009311199188 6.347656548023224 12.499499559402466 10.014383733272552 12.499499559402466 10.014383733272552 C 12.499499559402466 10.014383733272552 13.13472980260849 14.999594032764435 13.13472980260849 14.999594032764435 C 13.13472980260849 14.999594032764435 8.50001049041748 12.866012454032898 8.50001049041748 12.866012454032898 C 8.50001049041748 12.866012454032898 3.8652048110961914 14.999594032764435 3.8652048110961914 14.999594032764435 C 3.8652048110961914 14.999594032764435 4.500521421432495 10.014383733272552 4.500521421432495 10.014383733272552 C 4.500521421432495 10.014383733272552 1.0009253025054932 6.347656548023224 1.0009253025054932 6.347656548023224 C 1.0009253025054932 6.347656548023224 6.028096854686737 5.3996928334236145 6.028096854686737 5.3996928334236145 C 6.028096854686737 5.3996928334236145 8.50001049041748 1.0003276467323303 8.50001049041748 1.0003276467323303 C 8.50001049041748 1.0003276467323303 8.50001049041748 1.0003276467323303 8.50001049041748 1.0003276467323303"/></g></svg>